<svg xmlns="http://www.w3.org/2000/svg" width="800" height="540" viewBox="0 0 800 540"><title>Cancellation support — illustrative workflow</title><defs><linearGradient id="bg" x2="1" y2="1"><stop stop-color="#0c1b2b"/><stop offset="1" stop-color="#203a4d"/></linearGradient><radialGradient id="glow"><stop stop-color="#eebd65" stop-opacity=".19"/><stop offset="1" stop-color="#eebd65" stop-opacity="0"/></radialGradient></defs><rect width="800" height="540" rx="24" fill="url(#bg)"/><circle cx="400" cy="225" r="220" fill="url(#glow)"/><g fill="none" stroke="#a6bac8" stroke-opacity=".12"><circle cx="400" cy="220" r="150"/><circle cx="400" cy="220" r="190"/><path d="M0 220h180m440 0h180"/></g><text x="40" y="48" fill="#a6bac8" font-family="Arial,sans-serif" font-size="12" letter-spacing="3">RESOLUTIONOS / WORKFLOW</text><g transform="translate(400 213)" fill="none" stroke="#f5c779" stroke-width="6" stroke-linecap="round" stroke-linejoin="round"><path d="M-49 3v-17a49 49 0 0 1 98 0V3M49 25v13c0 19-17 24-36 24"/><rect x="-62" y="-3" width="25" height="41" rx="10"/><rect x="37" y="-3" width="25" height="41" rx="10"/><rect x="-9" y="51" width="27" height="16" rx="8"/></g><text x="400" y="350" text-anchor="middle" fill="#fff" font-family="Arial,sans-serif" font-size="28">Cancellation support</text><path d="M137 409h526" stroke="#607484" stroke-width="2"/><circle cx="137" cy="409" r="6" fill="#f5c779"/><text x="137" y="447" text-anchor="middle" fill="#e0e8ed" font-family="Arial,sans-serif" font-size="17">Customer intent</text><circle cx="400" cy="409" r="6" fill="#f5c779"/><text x="400" y="447" text-anchor="middle" fill="#e0e8ed" font-family="Arial,sans-serif" font-size="17">Options &amp; rules</text><circle cx="663" cy="409" r="6" fill="#f5c779"/><text x="663" y="447" text-anchor="middle" fill="#e0e8ed" font-family="Arial,sans-serif" font-size="17">Human support</text><text x="400" y="505" text-anchor="middle" fill="#9aacb8" font-family="Arial,sans-serif" font-size="12" letter-spacing="2">ILLUSTRATIVE SERVICE FLOW</text></svg>